<svg data-v-1084b650="" xmlns="http://www.w3.org/2000/svg" viewBox="0 0 300 300"><!----> <!----> <rect data-v-1084b650="" fill="#FAF1EE" x="0" y="0" width="300px" height="300px" class="logo-background-square"></rect> <!----> <g data-v-1084b650="" id="85c5a898-41f8-4eb2-e7bd-f24920f4fd68" fill="#2F1911" transform="matrix(5.499999999999998,0,0,5.499999999999998,33.17999821901326,160.06499886512756)"><path d="M1.93 13.02L1.93 13.02L1.30 13.02L1.30 13.02Q1.11 13.02 1.11 12.82L1.11 12.82L1.11 4.21L1.11 4.21Q1.11 4.02 1.30 4.02L1.30 4.02L4.58 4.02L4.58 4.02Q5.54 4.02 6.09 4.57L6.09 4.57L6.09 4.57Q6.64 5.12 6.64 6.09L6.64 6.09L6.64 7.64L6.64 7.64Q6.64 8.62 6.09 9.17L6.09 9.17L6.09 9.17Q5.54 9.72 4.58 9.72L4.58 9.72L2.27 9.72L2.27 9.72Q2.13 9.72 2.13 9.84L2.13 9.84L2.13 12.82L2.13 12.82Q2.13 13.02 1.93 13.02ZM2.27 8.81L2.27 8.81L4.44 8.81L4.44 8.81Q5.61 8.81 5.61 7.60L5.61 7.60L5.61 6.13L5.61 6.13Q5.61 4.91 4.44 4.91L4.44 4.91L2.27 4.91L2.27 4.91Q2.13 4.91 2.13 5.04L2.13 5.04L2.13 8.68L2.13 8.68Q2.13 8.81 2.27 8.81ZM9.16 13.02L9.16 13.02L8.53 13.02L8.53 13.02Q8.33 13.02 8.33 12.82L8.33 12.82L8.33 6.08L8.33 6.08Q8.33 5.88 8.53 5.88L8.53 5.88L9.16 5.88L9.16 5.88Q9.35 5.88 9.35 6.08L9.35 6.08L9.35 6.64L9.41 6.64L9.41 6.64Q9.55 6.33 9.94 6.10L9.94 6.10L9.94 6.10Q10.33 5.88 10.86 5.88L10.86 5.88L11.41 5.88L11.41 5.88Q11.59 5.88 11.59 6.08L11.59 6.08L11.59 6.59L11.59 6.59Q11.59 6.69 11.55 6.74L11.55 6.74L11.55 6.74Q11.51 6.79 11.41 6.78L11.41 6.78L10.65 6.78L10.65 6.78Q10.02 6.78 9.69 7.15L9.69 7.15L9.69 7.15Q9.35 7.53 9.35 8.19L9.35 8.19L9.35 12.82L9.35 12.82Q9.35 13.02 9.16 13.02ZM15.99 13.02L15.99 13.02L14.78 13.02L14.78 13.02Q13.82 13.02 13.26 12.47L13.26 12.47L13.26 12.47Q12.71 11.93 12.71 10.95L12.71 10.95L12.71 7.95L12.71 7.95Q12.71 6.97 13.26 6.43L13.26 6.43L13.26 6.43Q13.82 5.88 14.78 5.88L14.78 5.88L15.99 5.88L15.99 5.88Q16.95 5.88 17.51 6.43L17.51 6.43L17.51 6.43Q18.06 6.97 18.06 7.95L18.06 7.95L18.06 10.95L18.06 10.95Q18.06 11.93 17.51 12.47L17.51 12.47L17.51 12.47Q16.95 13.02 15.99 13.02ZM14.90 12.12L14.90 12.12L15.88 12.12L15.88 12.12Q17.05 12.12 17.05 10.92L17.05 10.92L17.05 7.98L17.05 7.98Q17.05 6.78 15.88 6.78L15.88 6.78L14.90 6.78L14.90 6.78Q13.72 6.78 13.72 7.98L13.72 7.98L13.72 10.92L13.72 10.92Q13.72 12.12 14.90 12.12ZM20.12 6.78L20.12 6.78L19.35 6.78L19.35 6.78Q19.15 6.78 19.15 6.59L19.15 6.59L19.15 6.08L19.15 6.08Q19.15 5.88 19.35 5.88L19.35 5.88L20.12 5.88L20.12 5.88Q20.26 5.88 20.26 5.75L20.26 5.75L20.26 4.55L20.26 4.55Q20.26 4.35 20.45 4.35L20.45 4.35L21.08 4.35L21.08 4.35Q21.27 4.35 21.27 4.55L21.27 4.55L21.27 5.75L21.27 5.75Q21.27 5.88 21.42 5.88L21.42 5.88L22.90 5.88L22.90 5.88Q23.11 5.88 23.11 6.08L23.11 6.08L23.11 6.59L23.11 6.59Q23.11 6.78 22.90 6.78L22.90 6.78L21.42 6.78L21.42 6.78Q21.27 6.78 21.27 6.90L21.27 6.90L21.27 10.93L21.27 10.93Q21.27 12.12 22.50 12.12L22.50 12.12L23.04 12.12L23.04 12.12Q23.25 12.12 23.25 12.32L23.25 12.32L23.25 12.84L23.25 12.84Q23.25 13.02 23.04 13.02L23.04 13.02L22.37 13.02L22.37 13.02Q21.41 13.02 20.83 12.48L20.83 12.48L20.83 12.48Q20.26 11.94 20.26 10.98L20.26 10.98L20.26 6.90L20.26 6.90Q20.26 6.78 20.12 6.78ZM29.64 13.02L29.64 13.02L26.67 13.02L26.67 13.02Q25.70 13.02 25.15 12.47L25.15 12.47L25.15 12.47Q24.60 11.93 24.60 10.95L24.60 10.95L24.60 7.95L24.60 7.95Q24.60 6.97 25.15 6.43L25.15 6.43L25.15 6.43Q25.70 5.88 26.67 5.88L26.67 5.88L27.85 5.88L27.85 5.88Q28.81 5.88 29.36 6.43L29.36 6.43L29.36 6.43Q29.90 6.97 29.90 7.95L29.90 7.95L29.90 9.73L29.90 9.73Q29.90 9.94 29.71 9.94L29.71 9.94L25.75 9.94L25.75 9.94Q25.61 9.94 25.61 10.07L25.61 10.07L25.61 10.92L25.61 10.92Q25.61 12.14 26.78 12.14L26.78 12.14L29.64 12.14L29.64 12.14Q29.83 12.14 29.83 12.33L29.83 12.33L29.83 12.84L29.83 12.84Q29.83 13.02 29.64 13.02ZM25.75 9.20L25.75 9.20L28.77 9.20L28.77 9.20Q28.91 9.20 28.91 9.06L28.91 9.06L28.91 7.98L28.91 7.98Q28.91 6.78 27.73 6.78L27.73 6.78L26.78 6.78L26.78 6.78Q25.61 6.78 25.61 7.98L25.61 7.98L25.61 9.06L25.61 9.06Q25.61 9.20 25.75 9.20ZM35.78 12.32L35.78 12.32L35.78 12.84L35.78 12.84Q35.78 13.02 35.59 13.02L35.59 13.02L33.56 13.02L33.56 13.02Q32.59 13.02 32.04 12.47L32.04 12.47L32.04 12.47Q31.49 11.93 31.49 10.95L31.49 10.95L31.49 7.95L31.49 7.95Q31.49 6.97 32.04 6.43L32.04 6.43L32.04 6.43Q32.59 5.88 33.56 5.88L33.56 5.88L35.59 5.88L35.59 5.88Q35.78 5.88 35.78 6.08L35.78 6.08L35.78 6.59L35.78 6.59Q35.78 6.78 35.59 6.78L35.59 6.78L33.67 6.78L33.67 6.78Q32.51 6.78 32.51 7.99L32.51 7.99L32.51 10.91L32.51 10.91Q32.51 12.12 33.67 12.12L33.67 12.12L35.59 12.12L35.59 12.12Q35.78 12.12 35.78 12.32ZM41.37 12.32L41.37 12.32L41.37 12.84L41.37 12.84Q41.37 13.02 41.17 13.02L41.17 13.02L39.14 13.02L39.14 13.02Q38.18 13.02 37.62 12.47L37.62 12.47L37.62 12.47Q37.07 11.93 37.07 10.95L37.07 10.95L37.07 7.95L37.07 7.95Q37.07 6.97 37.62 6.43L37.62 6.43L37.62 6.43Q38.18 5.88 39.14 5.88L39.14 5.88L41.17 5.88L41.17 5.88Q41.37 5.88 41.37 6.08L41.37 6.08L41.37 6.59L41.37 6.59Q41.37 6.78 41.17 6.78L41.17 6.78L39.26 6.78L39.26 6.78Q38.09 6.78 38.09 7.99L38.09 7.99L38.09 10.91L38.09 10.91Q38.09 12.12 39.26 12.12L39.26 12.12L41.17 12.12L41.17 12.12Q41.37 12.12 41.37 12.32Z"></path></g> <linearGradient data-v-1084b650="" gradientTransform="rotate(25)" id="73d414b1-e5e4-f7e6-dadf-9bbd19ddb000" x1="0%" y1="0%" x2="100%" y2="0%"><stop data-v-1084b650="" offset="0%" style="stop-color: rgb(184, 41, 73); stop-opacity: 1;"></stop> <stop data-v-1084b650="" offset="100%" style="stop-color: rgb(233, 184, 76); stop-opacity: 1;"></stop></linearGradient> <g data-v-1084b650="" id="ea1c5c59-6be4-fd8e-5adf-c8dada33f21e" fill="url(#73d414b1-e5e4-f7e6-dadf-9bbd19ddb000)" stroke="url(#73d414b1-e5e4-f7e6-dadf-9bbd19ddb000)" transform="matrix(0.39965115873669577,0,0,0.39965115873669577,90.05252314231679,57.8773384031805)"><svg xmlns="http://www.w3.org/2000/svg" xmlns:xlink="http://www.w3.org/1999/xlink" version="1.1" x="0px" y="0px" viewBox="0 0 100 100" enable-background="new 0 0 100 100" xml:space="preserve"><g display="none"><g display="inline"><g><g enable-background="new    "><g><polygon points="55.779,59.754 49.607,57.281 49.624,51.451 55.796,53.924      "></polygon></g><g><polygon fill="#000000" points="48.918,60.718 42.746,58.245 42.765,51.445 48.937,53.919      "></polygon></g><g><polygon fill="#000000" points="54.111,43.485 61.803,52.11 59.226,52.473 59.206,59.272 55.779,59.754 55.796,53.924        52.361,54.407 52.345,60.236 48.918,60.718 48.937,53.919 46.366,54.279      "></polygon></g><g><polygon fill="#000000" points="46.366,54.279 40.195,51.807 47.94,41.012 54.111,43.485      "></polygon></g></g></g></g></g><g display="none"><g display="inline"><path fill="#000000" d="M41.332,92.038c-0.127,0-0.253-0.024-0.372-0.071L15.252,81.668c-0.38-0.152-0.629-0.521-0.628-0.932    l0.06-21.857L4.628,54.85c-0.285-0.115-0.502-0.354-0.588-0.648c-0.086-0.296-0.032-0.613,0.147-0.863l32.26-44.959    c0.192-0.268,0.498-0.417,0.813-0.417c0.125,0,0.25,0.023,0.372,0.072l25.704,10.299c0.144,0.058,0.271,0.147,0.374,0.263    l32.036,35.925c0.246,0.275,0.319,0.664,0.192,1.011c-0.127,0.346-0.434,0.594-0.799,0.646l-9.877,1.389l-0.078,27.456    c-0.001,0.497-0.368,0.918-0.861,0.987L70.05,88.014c-0.046,0.007-0.093,0.01-0.139,0.01c-0.127,0-0.253-0.024-0.372-0.071    l-12.916-5.175l-0.018,6.259c-0.001,0.497-0.368,0.918-0.861,0.987l-14.273,2.005C41.425,92.035,41.378,92.038,41.332,92.038z"></path><path d="M37.26,8.962l25.704,10.299L95,55.187l-10.734,1.509l-0.081,28.323l-14.273,2.005l-14.284-5.723l-0.021,7.732    l-14.273,2.005L15.625,80.739l0.062-22.536L5,53.921L37.26,8.962 M37.261,6.962c-0.63,0-1.241,0.298-1.625,0.834L3.375,52.755    c-0.358,0.499-0.467,1.136-0.295,1.726c0.172,0.59,0.605,1.068,1.176,1.297l9.426,3.777l-0.058,21.179    c-0.002,0.819,0.496,1.558,1.256,1.862l25.708,10.299c0.237,0.095,0.49,0.144,0.744,0.144c0.093,0,0.186-0.007,0.278-0.02    l14.273-2.005c0.985-0.139,1.719-0.979,1.722-1.975l0.014-4.786l11.548,4.627c0.237,0.095,0.49,0.144,0.744,0.144    c0.093,0,0.186-0.007,0.278-0.02l14.273-2.005c0.985-0.139,1.719-0.979,1.722-1.975l0.076-26.59l9.018-1.268    c0.73-0.103,1.346-0.6,1.6-1.292s0.105-1.469-0.385-2.02L64.457,17.93c-0.206-0.23-0.463-0.411-0.749-0.525L38.004,7.105    C37.762,7.008,37.51,6.962,37.261,6.962L37.261,6.962z"></path></g><g display="inline"><g><path fill="#000000" d="M69.911,87.523c-0.062,0-0.126-0.012-0.186-0.036l-14.284-5.723c-0.19-0.076-0.315-0.261-0.314-0.465     l0.047-16.548c0.001-0.249,0.185-0.46,0.431-0.494l14.307-2.013c0.022-0.003,0.046-0.005,0.069-0.005     c0.12,0,0.237,0.043,0.328,0.123c0.109,0.096,0.172,0.233,0.172,0.378l-0.069,24.283c0,0.166-0.083,0.321-0.221,0.413     C70.107,87.494,70.01,87.523,69.911,87.523z"></path><path d="M69.98,62.74h0.005 M69.98,62.74l-0.069,24.283l-14.284-5.723l0.047-16.548L69.98,62.74 M69.98,61.74     c-0.008,0-0.016,0-0.024,0c-0.045,0.001-0.089,0.005-0.132,0.012l-14.29,2.011c-0.492,0.069-0.859,0.49-0.86,0.987l-0.047,16.548     c-0.001,0.41,0.248,0.779,0.628,0.932l14.284,5.723c0.12,0.048,0.246,0.071,0.372,0.071c0.196,0,0.392-0.058,0.56-0.171     c0.274-0.186,0.439-0.495,0.44-0.826l0.069-24.212c0.002-0.024,0.003-0.05,0.003-0.074c0-0.553-0.445-1-0.998-1h-0.001     C69.982,61.74,69.981,61.74,69.98,61.74L69.98,61.74z"></path></g><g><path fill="#000000" d="M41.332,91.538c-0.063,0-0.126-0.012-0.186-0.036L15.438,81.203c-0.19-0.076-0.314-0.261-0.314-0.465     l0.061-22.197L4.814,54.385c-0.143-0.057-0.251-0.177-0.294-0.324s-0.016-0.307,0.074-0.431L36.854,8.67     c0.096-0.134,0.249-0.208,0.406-0.208c0.062,0,0.125,0.012,0.186,0.036l25.703,10.299c0.143,0.058,0.252,0.177,0.295,0.324     c0.043,0.148,0.016,0.307-0.074,0.432L31.79,63.563l9.55-1.339c0.023-0.003,0.046-0.005,0.069-0.005     c0.12,0,0.237,0.043,0.329,0.123c0.109,0.096,0.172,0.233,0.171,0.378l-0.077,28.318c0,0.166-0.083,0.321-0.22,0.413     C41.528,91.509,41.43,91.538,41.332,91.538z"></path><path d="M37.26,8.962l25.704,10.299L33.931,59.723l-3.228,4.498l10.706-1.501l-0.077,28.318L15.625,80.739l0.062-22.536L5,53.921     L37.26,8.962 M37.261,7.962c-0.315,0-0.621,0.149-0.813,0.417L4.188,53.338c-0.179,0.25-0.233,0.567-0.147,0.863     c0.086,0.295,0.303,0.533,0.588,0.648l10.056,4.029l-0.06,21.857c-0.001,0.41,0.248,0.779,0.628,0.932L40.96,91.967     c0.12,0.048,0.247,0.071,0.372,0.071c0.196,0,0.392-0.058,0.559-0.171c0.275-0.186,0.44-0.495,0.441-0.826l0.077-28.318     c0.001-0.29-0.125-0.566-0.343-0.757c-0.183-0.159-0.417-0.246-0.657-0.246c-0.046,0-0.093,0.003-0.139,0.01l-8.394,1.177     l1.866-2.601l29.033-40.461c0.179-0.25,0.233-0.568,0.147-0.863s-0.303-0.534-0.588-0.648L37.632,8.034     C37.511,7.985,37.385,7.962,37.261,7.962L37.261,7.962z"></path></g></g><line display="inline" fill="#000000" stroke-linecap="round" stroke-linejoin="round" stroke-miterlimit="3" x1="30.703" y1="64.221" x2="5" y2="53.921"></line><g display="inline"><path fill="#000000" d="M41.332,91.538c-0.12,0-0.237-0.043-0.329-0.123c-0.109-0.096-0.172-0.233-0.171-0.378l0.076-27.742    l-10.135,1.421c-0.023,0.003-0.046,0.005-0.069,0.005c-0.173,0-0.336-0.09-0.428-0.241c-0.104-0.171-0.095-0.388,0.021-0.55    l32.261-44.96c0.089-0.124,0.229-0.2,0.38-0.208c0.009,0,0.018,0,0.026,0c0.143,0,0.278,0.061,0.373,0.167l32.036,35.925    c0.123,0.138,0.16,0.332,0.097,0.505c-0.063,0.174-0.218,0.298-0.4,0.323L84.765,57.13l-0.08,27.89    c-0.001,0.249-0.185,0.46-0.431,0.494L69.98,87.519c-0.023,0.003-0.046,0.005-0.069,0.005c-0.12,0-0.237-0.043-0.328-0.123    c-0.109-0.096-0.172-0.233-0.172-0.378l0.067-23.707l-13.306,1.872l-0.067,23.847c-0.001,0.249-0.185,0.46-0.431,0.494    l-14.273,2.005C41.378,91.536,41.355,91.538,41.332,91.538z"></path><path d="M62.964,19.261L95,55.187l-10.734,1.509l-0.081,28.323l-14.273,2.005L69.98,62.74l-14.307,2.013l-0.047,16.548    l-0.021,7.732l-14.273,2.005l0.077-28.318l-10.706,1.501l3.228-4.498L62.964,19.261 M62.964,18.261c-0.018,0-0.035,0-0.053,0.001    c-0.304,0.016-0.583,0.169-0.76,0.416L33.118,59.14l-3.228,4.498c-0.233,0.325-0.25,0.758-0.043,1.101    c0.183,0.302,0.509,0.482,0.855,0.482c0.046,0,0.093-0.003,0.139-0.01l9.564-1.341l-0.074,27.165    c-0.001,0.29,0.125,0.566,0.343,0.757c0.184,0.159,0.417,0.246,0.657,0.246c0.046,0,0.093-0.003,0.139-0.01l14.273-2.005    c0.493-0.069,0.86-0.49,0.861-0.987l0.021-7.732l0.044-15.682l12.307-1.73l-0.066,23.129c-0.001,0.29,0.124,0.566,0.343,0.757    c0.184,0.159,0.417,0.246,0.657,0.246c0.046,0,0.093-0.003,0.139-0.01l14.273-2.005c0.493-0.069,0.86-0.49,0.861-0.987    l0.078-27.457l9.877-1.388c0.365-0.052,0.672-0.3,0.799-0.646c0.127-0.347,0.054-0.735-0.192-1.011L63.71,18.596    C63.52,18.382,63.248,18.261,62.964,18.261L62.964,18.261z"></path></g></g><g><path d="M94.287,52.99l-30.034-33.68c-0.003-0.003-0.007-0.006-0.01-0.009c-0.036-0.04-0.081-0.07-0.119-0.108   c-0.107-0.106-0.217-0.211-0.34-0.299c-0.058-0.041-0.123-0.07-0.183-0.106c-0.115-0.069-0.23-0.139-0.355-0.191   c-0.016-0.007-0.029-0.019-0.046-0.025L39.103,8.916c-0.34-0.136-0.695-0.202-1.045-0.202c-0.886,0-1.745,0.42-2.286,1.173   L5.527,52.036c-0.504,0.702-0.657,1.597-0.415,2.427c0.242,0.83,0.852,1.502,1.654,1.824l8.247,3.304l-0.053,19.22   c-0.003,1.152,0.697,2.19,1.767,2.618l24.101,9.655c0.01,0.004,0.021,0.005,0.031,0.009c0.117,0.046,0.237,0.076,0.357,0.104   c0.048,0.012,0.094,0.03,0.142,0.039c0.171,0.032,0.344,0.05,0.516,0.05c0.13,0,0.261-0.01,0.392-0.028l0.009-0.001l0.022-0.003   l13.351-1.875c1.386-0.194,2.417-1.378,2.421-2.777l0.009-3.104l9.545,3.823c0.01,0.004,0.021,0.005,0.03,0.009   c0.116,0.045,0.236,0.075,0.355,0.104c0.049,0.012,0.095,0.03,0.145,0.04c0.171,0.031,0.343,0.049,0.516,0.049   c0.13,0,0.261-0.01,0.391-0.028l0.008-0.001l0.025-0.004l13.349-1.874c1.386-0.194,2.417-1.378,2.421-2.777l0.069-24.115   l7.649-1.075c1.027-0.145,1.892-0.843,2.249-1.816C95.185,54.856,94.978,53.765,94.287,52.99z M82.048,82.83L71.48,84.314   l-1.406,0.198l-1.407,0.197l0.064-22.766l-13.412,1.887l-0.044,15.514l-0.004,1.514l-0.005,1.513l-0.012,4.223l-10.568,1.484   l-1.407,0.198l-1.407,0.197l0.073-26.549l-10.037,1.407l3.026-4.217l27.218-37.933l0.959,1.076l0.959,1.076l28.116,31.529   l-10.063,1.414L82.048,82.83z"></path></g></svg></g></svg>