<svg data-v-1084b650="" xmlns="http://www.w3.org/2000/svg" viewBox="0 0 300 300"><!----> <!----> <rect data-v-1084b650="" fill="#FAF1EE" x="0" y="0" width="300px" height="300px" class="logo-background-square"></rect> <!----> <linearGradient data-v-1084b650="" gradientTransform="rotate(25)" id="cfcf0043-0022-1db8-ee39-c713e66b58fa" x1="0%" y1="0%" x2="100%" y2="0%"><stop data-v-1084b650="" offset="0%" style="stop-color: rgb(184, 41, 73); stop-opacity: 1;"></stop> <stop data-v-1084b650="" offset="100%" style="stop-color: rgb(233, 184, 76); stop-opacity: 1;"></stop></linearGradient> <g data-v-1084b650="" id="f42ed6ff-965e-7836-5189-5b5a46804e67" fill="url(#cfcf0043-0022-1db8-ee39-c713e66b58fa)" stroke="url(#cfcf0043-0022-1db8-ee39-c713e66b58fa)" transform="matrix(0.7999999999999998,0,0,0.7999999999999998,29.99973754882815,29.999984741210966)"><svg xmlns="http://www.w3.org/2000/svg" xmlns:xlink="http://www.w3.org/1999/xlink" version="1.1" x="0px" y="0px" viewBox="0 0 100 100" enable-background="new 0 0 100 100" xml:space="preserve"><g display="none"><g display="inline"><g><g enable-background="new    "><g><polygon points="55.779,59.754 49.607,57.281 49.624,51.451 55.796,53.924      "></polygon></g><g><polygon fill="#000000" points="48.918,60.718 42.746,58.245 42.765,51.445 48.937,53.919      "></polygon></g><g><polygon fill="#000000" points="54.111,43.485 61.803,52.11 59.226,52.473 59.206,59.272 55.779,59.754 55.796,53.924        52.361,54.407 52.345,60.236 48.918,60.718 48.937,53.919 46.366,54.279      "></polygon></g><g><polygon fill="#000000" points="46.366,54.279 40.195,51.807 47.94,41.012 54.111,43.485      "></polygon></g></g></g></g></g><g display="none"><g display="inline"><path fill="#000000" d="M41.332,92.038c-0.127,0-0.253-0.024-0.372-0.071L15.252,81.668c-0.38-0.152-0.629-0.521-0.628-0.932    l0.06-21.857L4.628,54.85c-0.285-0.115-0.502-0.354-0.588-0.648c-0.086-0.296-0.032-0.613,0.147-0.863l32.26-44.959    c0.192-0.268,0.498-0.417,0.813-0.417c0.125,0,0.25,0.023,0.372,0.072l25.704,10.299c0.144,0.058,0.271,0.147,0.374,0.263    l32.036,35.925c0.246,0.275,0.319,0.664,0.192,1.011c-0.127,0.346-0.434,0.594-0.799,0.646l-9.877,1.389l-0.078,27.456    c-0.001,0.497-0.368,0.918-0.861,0.987L70.05,88.014c-0.046,0.007-0.093,0.01-0.139,0.01c-0.127,0-0.253-0.024-0.372-0.071    l-12.916-5.175l-0.018,6.259c-0.001,0.497-0.368,0.918-0.861,0.987l-14.273,2.005C41.425,92.035,41.378,92.038,41.332,92.038z"></path><path d="M37.26,8.962l25.704,10.299L95,55.187l-10.734,1.509l-0.081,28.323l-14.273,2.005l-14.284-5.723l-0.021,7.732    l-14.273,2.005L15.625,80.739l0.062-22.536L5,53.921L37.26,8.962 M37.261,6.962c-0.63,0-1.241,0.298-1.625,0.834L3.375,52.755    c-0.358,0.499-0.467,1.136-0.295,1.726c0.172,0.59,0.605,1.068,1.176,1.297l9.426,3.777l-0.058,21.179    c-0.002,0.819,0.496,1.558,1.256,1.862l25.708,10.299c0.237,0.095,0.49,0.144,0.744,0.144c0.093,0,0.186-0.007,0.278-0.02    l14.273-2.005c0.985-0.139,1.719-0.979,1.722-1.975l0.014-4.786l11.548,4.627c0.237,0.095,0.49,0.144,0.744,0.144    c0.093,0,0.186-0.007,0.278-0.02l14.273-2.005c0.985-0.139,1.719-0.979,1.722-1.975l0.076-26.59l9.018-1.268    c0.73-0.103,1.346-0.6,1.6-1.292s0.105-1.469-0.385-2.02L64.457,17.93c-0.206-0.23-0.463-0.411-0.749-0.525L38.004,7.105    C37.762,7.008,37.51,6.962,37.261,6.962L37.261,6.962z"></path></g><g display="inline"><g><path fill="#000000" d="M69.911,87.523c-0.062,0-0.126-0.012-0.186-0.036l-14.284-5.723c-0.19-0.076-0.315-0.261-0.314-0.465     l0.047-16.548c0.001-0.249,0.185-0.46,0.431-0.494l14.307-2.013c0.022-0.003,0.046-0.005,0.069-0.005     c0.12,0,0.237,0.043,0.328,0.123c0.109,0.096,0.172,0.233,0.172,0.378l-0.069,24.283c0,0.166-0.083,0.321-0.221,0.413     C70.107,87.494,70.01,87.523,69.911,87.523z"></path><path d="M69.98,62.74h0.005 M69.98,62.74l-0.069,24.283l-14.284-5.723l0.047-16.548L69.98,62.74 M69.98,61.74     c-0.008,0-0.016,0-0.024,0c-0.045,0.001-0.089,0.005-0.132,0.012l-14.29,2.011c-0.492,0.069-0.859,0.49-0.86,0.987l-0.047,16.548     c-0.001,0.41,0.248,0.779,0.628,0.932l14.284,5.723c0.12,0.048,0.246,0.071,0.372,0.071c0.196,0,0.392-0.058,0.56-0.171     c0.274-0.186,0.439-0.495,0.44-0.826l0.069-24.212c0.002-0.024,0.003-0.05,0.003-0.074c0-0.553-0.445-1-0.998-1h-0.001     C69.982,61.74,69.981,61.74,69.98,61.74L69.98,61.74z"></path></g><g><path fill="#000000" d="M41.332,91.538c-0.063,0-0.126-0.012-0.186-0.036L15.438,81.203c-0.19-0.076-0.314-0.261-0.314-0.465     l0.061-22.197L4.814,54.385c-0.143-0.057-0.251-0.177-0.294-0.324s-0.016-0.307,0.074-0.431L36.854,8.67     c0.096-0.134,0.249-0.208,0.406-0.208c0.062,0,0.125,0.012,0.186,0.036l25.703,10.299c0.143,0.058,0.252,0.177,0.295,0.324     c0.043,0.148,0.016,0.307-0.074,0.432L31.79,63.563l9.55-1.339c0.023-0.003,0.046-0.005,0.069-0.005     c0.12,0,0.237,0.043,0.329,0.123c0.109,0.096,0.172,0.233,0.171,0.378l-0.077,28.318c0,0.166-0.083,0.321-0.22,0.413     C41.528,91.509,41.43,91.538,41.332,91.538z"></path><path d="M37.26,8.962l25.704,10.299L33.931,59.723l-3.228,4.498l10.706-1.501l-0.077,28.318L15.625,80.739l0.062-22.536L5,53.921     L37.26,8.962 M37.261,7.962c-0.315,0-0.621,0.149-0.813,0.417L4.188,53.338c-0.179,0.25-0.233,0.567-0.147,0.863     c0.086,0.295,0.303,0.533,0.588,0.648l10.056,4.029l-0.06,21.857c-0.001,0.41,0.248,0.779,0.628,0.932L40.96,91.967     c0.12,0.048,0.247,0.071,0.372,0.071c0.196,0,0.392-0.058,0.559-0.171c0.275-0.186,0.44-0.495,0.441-0.826l0.077-28.318     c0.001-0.29-0.125-0.566-0.343-0.757c-0.183-0.159-0.417-0.246-0.657-0.246c-0.046,0-0.093,0.003-0.139,0.01l-8.394,1.177     l1.866-2.601l29.033-40.461c0.179-0.25,0.233-0.568,0.147-0.863s-0.303-0.534-0.588-0.648L37.632,8.034     C37.511,7.985,37.385,7.962,37.261,7.962L37.261,7.962z"></path></g></g><line display="inline" fill="#000000" stroke-linecap="round" stroke-linejoin="round" stroke-miterlimit="3" x1="30.703" y1="64.221" x2="5" y2="53.921"></line><g display="inline"><path fill="#000000" d="M41.332,91.538c-0.12,0-0.237-0.043-0.329-0.123c-0.109-0.096-0.172-0.233-0.171-0.378l0.076-27.742    l-10.135,1.421c-0.023,0.003-0.046,0.005-0.069,0.005c-0.173,0-0.336-0.09-0.428-0.241c-0.104-0.171-0.095-0.388,0.021-0.55    l32.261-44.96c0.089-0.124,0.229-0.2,0.38-0.208c0.009,0,0.018,0,0.026,0c0.143,0,0.278,0.061,0.373,0.167l32.036,35.925    c0.123,0.138,0.16,0.332,0.097,0.505c-0.063,0.174-0.218,0.298-0.4,0.323L84.765,57.13l-0.08,27.89    c-0.001,0.249-0.185,0.46-0.431,0.494L69.98,87.519c-0.023,0.003-0.046,0.005-0.069,0.005c-0.12,0-0.237-0.043-0.328-0.123    c-0.109-0.096-0.172-0.233-0.172-0.378l0.067-23.707l-13.306,1.872l-0.067,23.847c-0.001,0.249-0.185,0.46-0.431,0.494    l-14.273,2.005C41.378,91.536,41.355,91.538,41.332,91.538z"></path><path d="M62.964,19.261L95,55.187l-10.734,1.509l-0.081,28.323l-14.273,2.005L69.98,62.74l-14.307,2.013l-0.047,16.548    l-0.021,7.732l-14.273,2.005l0.077-28.318l-10.706,1.501l3.228-4.498L62.964,19.261 M62.964,18.261c-0.018,0-0.035,0-0.053,0.001    c-0.304,0.016-0.583,0.169-0.76,0.416L33.118,59.14l-3.228,4.498c-0.233,0.325-0.25,0.758-0.043,1.101    c0.183,0.302,0.509,0.482,0.855,0.482c0.046,0,0.093-0.003,0.139-0.01l9.564-1.341l-0.074,27.165    c-0.001,0.29,0.125,0.566,0.343,0.757c0.184,0.159,0.417,0.246,0.657,0.246c0.046,0,0.093-0.003,0.139-0.01l14.273-2.005    c0.493-0.069,0.86-0.49,0.861-0.987l0.021-7.732l0.044-15.682l12.307-1.73l-0.066,23.129c-0.001,0.29,0.124,0.566,0.343,0.757    c0.184,0.159,0.417,0.246,0.657,0.246c0.046,0,0.093-0.003,0.139-0.01l14.273-2.005c0.493-0.069,0.86-0.49,0.861-0.987    l0.078-27.457l9.877-1.388c0.365-0.052,0.672-0.3,0.799-0.646c0.127-0.347,0.054-0.735-0.192-1.011L63.71,18.596    C63.52,18.382,63.248,18.261,62.964,18.261L62.964,18.261z"></path></g></g><g><path d="M94.287,52.99l-30.034-33.68c-0.003-0.003-0.007-0.006-0.01-0.009c-0.036-0.04-0.081-0.07-0.119-0.108   c-0.107-0.106-0.217-0.211-0.34-0.299c-0.058-0.041-0.123-0.07-0.183-0.106c-0.115-0.069-0.23-0.139-0.355-0.191   c-0.016-0.007-0.029-0.019-0.046-0.025L39.103,8.916c-0.34-0.136-0.695-0.202-1.045-0.202c-0.886,0-1.745,0.42-2.286,1.173   L5.527,52.036c-0.504,0.702-0.657,1.597-0.415,2.427c0.242,0.83,0.852,1.502,1.654,1.824l8.247,3.304l-0.053,19.22   c-0.003,1.152,0.697,2.19,1.767,2.618l24.101,9.655c0.01,0.004,0.021,0.005,0.031,0.009c0.117,0.046,0.237,0.076,0.357,0.104   c0.048,0.012,0.094,0.03,0.142,0.039c0.171,0.032,0.344,0.05,0.516,0.05c0.13,0,0.261-0.01,0.392-0.028l0.009-0.001l0.022-0.003   l13.351-1.875c1.386-0.194,2.417-1.378,2.421-2.777l0.009-3.104l9.545,3.823c0.01,0.004,0.021,0.005,0.03,0.009   c0.116,0.045,0.236,0.075,0.355,0.104c0.049,0.012,0.095,0.03,0.145,0.04c0.171,0.031,0.343,0.049,0.516,0.049   c0.13,0,0.261-0.01,0.391-0.028l0.008-0.001l0.025-0.004l13.349-1.874c1.386-0.194,2.417-1.378,2.421-2.777l0.069-24.115   l7.649-1.075c1.027-0.145,1.892-0.843,2.249-1.816C95.185,54.856,94.978,53.765,94.287,52.99z M82.048,82.83L71.48,84.314   l-1.406,0.198l-1.407,0.197l0.064-22.766l-13.412,1.887l-0.044,15.514l-0.004,1.514l-0.005,1.513l-0.012,4.223l-10.568,1.484   l-1.407,0.198l-1.407,0.197l0.073-26.549l-10.037,1.407l3.026-4.217l27.218-37.933l0.959,1.076l0.959,1.076l28.116,31.529   l-10.063,1.414L82.048,82.83z"></path></g></svg></g></svg>